# xmcd
#
# Track frame offsets:
# 150
# 29610
# 62340
# 88140
# 110705
# 134002
# 162592
# 203367
#
# Disc length: 3170 seconds
#
# Revision: 0
# Processed by: cddbd v1.4PL0 Copyright (c) Steve Scherf et al.
# Submitted via: Audion 3.0.2 (http://www.panic.com/audion/)
#
DISCID=6f0c6008
DTITLE=Dave Brubeck - Take the A train
DYEAR=1900
DGENRE=
TTITLE0=Take the A train
TTITLE1=The dove
TTITLE2=Three to get ready
TTITLE3=Forty days
TTITLE4=Summer song (softly william)
TTITLE5=Someday my prince
TTITLE6=One moment
TTITLE7=Joe's blues
EXTD=
EXTT0=
EXTT1=
EXTT2=
EXTT3=
EXTT4=
EXTT5=
EXTT6=
EXTT7=
PLAYORDER=
